<svg width="1200" height="1200" viewBox="0 0 1200 1200" fill="none" xmlns="http://www.w3.org/2000/svg">
  <rect width="1200" height="1200" rx="64" fill="#FFFFFF"/>
  <rect x="180" y="220" width="840" height="760" rx="56" fill="#F8FAFC" stroke="#CBD5E1" stroke-width="12"/>
  <rect x="280" y="330" width="640" height="44" rx="22" fill="#E2E8F0"/>
  <rect x="280" y="400" width="520" height="28" rx="14" fill="#E2E8F0"/>
  <rect x="280" y="456" width="420" height="28" rx="14" fill="#E2E8F0"/>
  <rect x="280" y="610" width="640" height="250" rx="28" fill="#FFFFFF" stroke="#CBD5E1" stroke-width="10"/>
  <path d="M350 782L510 640L620 726L720 664L850 782V840H350V782Z" fill="#E2E8F0"/>
  <circle cx="470" cy="700" r="46" fill="#F97316"/>
  <circle cx="470" cy="700" r="18" fill="#FFFFFF"/>
  <rect x="720" y="630" width="92" height="92" rx="28" fill="#0EA5E9"/>
  <rect x="748" y="658" width="36" height="36" rx="12" fill="#FFFFFF"/>
  <text x="600" y="976" text-anchor="middle" fill="#0F172A" font-family="Arial, Helvetica, sans-serif" font-size="44" font-weight="700">SmartSaver Product Image</text>
</svg>
